<svg version="1.1" xmlns="http://www.w3.org/2000/svg" viewBox="0 0 465 142">
<path fill="#2ECB70" d="M0,20V6c0-3.31371,2.68629-6,6-6h14c3.31371,0,6,2.68629,6,6v0.00003C26,17.04571,17.04571,26,6.00003,26H6
	C2.68629,26,0,23.31371,0,20z"/>
<path fill="#FFFFFF" d="M20,40.54034H6c-3.31372,0-6,2.68628-6,6v75c0,11.04572,8.95428,20,20,20h6v-95C26,43.22662,23.31372,40.54034,20,40.54034z
	 M71.46277,0h-14c-3.31372,0-6,2.68628-6,6v115.54034c0,11.04572,8.95428,20,20,20h6V6C77.46277,2.68628,74.77649,0,71.46277,0z
	 M185.45996,0h-14c-3.30994,0-6,2.69-6,6v38.41998l-2.60999-0.84998c-1.75989-0.57001-3.5199-1.05005-5.25-1.44
	c-3.19006-0.73999-6.63-1.11005-10.21997-1.11005c-6.80994,0-13.23999,1.01001-19.10999,3.01001
	c-5.83008,1.98999-10.98004,5.09003-15.31,9.22003c-4.32001,4.09998-7.79004,9.39001-10.32001,15.72998
	c-2.53003,6.32001-3.82001,14-3.82001,22.83002c0,16.94,4.75,29.66998,14.12,37.83997
	C122.33008,137.84998,135.21997,142,151.23999,142c4.25,0,8.25-0.32001,11.90002-0.94c0.65002-0.10999,1.29993-0.23004,1.93005-0.37
	c1.95996-0.42004,3.68994-0.88,5.29993-1.41003c0.51001-0.16998,1.01001-0.33997,1.52002-0.51996
	c4.80994-1.68005,8.7699-3.5,11.72998-5.41003c2.63-1.70001,4.62-3.48999,5.93005-5.33002
	c1.27002-1.75995,1.90991-4.15997,1.90991-7.12994V6C191.45996,2.69,188.78003,0,185.45996,0z M165.45996,119.40997l-1.1499,0.53003
	c-1.18005,0.54999-2.48999,1.06-4.03003,1.57996c-2.58008,0.82001-5.68005,1.24005-9.23999,1.24005
	c-8.40002,0-15.16003-2.49005-20.08008-7.41003c-4.90991-4.89996-7.40991-12.75-7.40991-23.33997
	c0-11.24005,2.59998-19.46002,7.71997-24.45001c5.10999-4.98004,11.63-7.5,19.35999-7.5c3.17004,0,6.17004,0.41998,8.93005,1.23999
	c1.72998,0.52002,3.32996,1.13,4.76001,1.79999l1.13989,0.54004V119.40997z M284.46997,49.44
	c-0.87988-0.62-1.80005-1.20001-2.75-1.73999c-6.5-3.76001-14.58997-5.95001-24.15991-6.54004
	c-0.06006,0-0.12012-0.01001-0.18005-0.01001c-0.52002-0.02997-1.03992-0.04999-1.56995-0.07001
	c-0.07007-0.00995-0.15015-0.00995-0.21997-0.00995c-0.61011-0.02002-1.2301-0.04004-1.8501-0.05005
	C253.09009,41.01001,252.44995,41,251.81006,41c-0.53003,0-1.06006,0-1.59009,0.01996
	c-6.85999,0.07001-13.13989,0.71002-19.16992,1.96002c-1.65002,0.34003-3.20007,0.90002-4.62012,1.63
	c-5.92993,3.07001-9.61987,9.21997-9.61987,15.77002c0,1.03998,0.08997,2.08997,0.28992,3.13995
	c0.2301,1.28003,0.60999,2.55005,1.15002,3.81c0.57007-0.26996,1.14001-0.53998,1.70996-0.78998
	c5.81006-2.62,11.41003-4.38,17.40002-5.39996c3.97009-0.69,8.10999-1.05005,12.58997-1.12006
	c6.69006,0.06,11.95996,1.29004,15.69006,3.67004c3.85999,2.45996,5.81995,6.34998,5.81995,11.54999v3.90002L242.87,81.97998
	c-11.08997,1.07001-19.66003,4.01001-25.46008,8.73999c-5.7699,4.70001-8.69995,11.58002-8.69995,20.46002
	c0,10.21002,3.96997,17.97998,11.79004,23.08002C228.37,139.39001,239.30005,142,253,142c7.54004,0,14.34998-0.67999,20.25-2.02002
	c5.89001-1.33002,10.82007-3.15997,14.65002-5.41998c2.44995-1.47003,4.5199-3.15002,6.15002-5
	c1.59998-1.82001,2.40991-4.34003,2.40991-7.47003V75.44C296.45996,63.76001,292.42993,55.01001,284.46997,49.44z
	 M271.45996,119.14001l-1.01001,0.56995c-1.47998,0.85004-3.57996,1.59003-6.25,2.19c-3.21997,0.74005-6.82996,1.12-10.71997,1.12
	c-6.47998,0-11.23999-1.09998-14.15991-3.27997c-2.94006-2.19-4.44006-5.31-4.44006-9.28003
	c0-3.96997,1.46997-6.92999,4.35999-8.77997c2.84009-1.83002,7-3.03003,12.40002-3.57001l19.81995-1.84003V119.14001z
	 M461.87012,59.95782c-2.09009-4.51996-4.94006-8.27997-8.4801-11.19c-3.52991-2.91998-7.78992-5.06-12.66003-6.38995
	c-4.85986-1.32001-10.07996-1.98999-15.52002-1.98999c-7.08984,0-13.33984,0.98999-18.55994,2.94
	c-4.77991,1.78998-9.09998,3.98999-12.84998,6.56l-1.21997,0.83997l-1.16003-0.92999c-7.78992-6.23999-17.88-9.40997-30-9.40997
	c-6.81995,0-13.52002,0.94995-19.93005,2.82996c-6.3999,1.88-11.77002,4.25-15.94995,7.04004
	c-2.90991,1.92999-5.08008,4-6.46997,6.14996c-1.37012,2.12-2.07007,4.81-2.07007,7.98004v57.14996c0,11.04999,8.94995,20,20,20h6
	V66.13788l1.06006-0.56c1.80005-0.96002,3.97998-1.93005,6.5-2.89001c2.96997-1.13,6.28003-1.71002,9.82996-1.71002
	c5.10999,0,9.37,1.29999,12.66003,3.87C376.38013,67.45782,378,71.53784,378,77.30786v44.22998c0,11.04999,8.94995,20,20,20h6
	V68.05786l0.28003-0.22998c2.20996-1.79004,4.72998-3.27002,7.5-4.37006c3.12-1.25995,6.53003-1.91998,9.87-1.91998h0.62
	c4.94995,0.04999,9,1.34003,12.04004,3.84003C437.42004,67.92786,439,72.09784,439,77.74786v43.78998c0,11.04999,8.94995,20,20,20h6
	V76.17786C465,69.93787,463.94995,64.47784,461.87012,59.95782z"/>
</svg>
